<svg width="4725" height="338" viewBox="0 0 4725 338" fill="none" xmlns="http://www.w3.org/2000/svg">
<g clip-path="url(#clip0_193_2)">
<path d="M162.538 245.268H467.26V318.418H28.7782V25.818H162.538V245.268ZM631.564 245.268H948.826V318.418H497.804V25.818H948.826V98.968H631.564V135.334H924.164V208.484H631.564V245.268ZM1458.64 25.818V98.968H1281.82V318.418H1147.64V98.968H971.247V25.818H1458.64ZM1479.72 25.4H1561.65V107.746L1520.69 173.372H1491.85L1512.33 107.746H1479.72V25.4ZM1860.72 135.334C2024.57 139.096 2126.98 147.456 2126.98 228.966H2126.56C2126.56 310.058 2022.48 326.36 1858.63 326.36C1688.08 326.36 1590.69 310.058 1590.69 220.606H1724.45C1724.45 253.21 1780.04 253.21 1858.63 253.21C1935.96 253.21 1991.55 253.21 1991.55 228.966C1991.55 200.124 1934.28 202.214 1856.95 200.124C1856.54 200.124 1856.54 200.124 1856.54 200.124C1693.1 196.362 1596.54 188.002 1596.54 111.09C1596.54 33.76 1694.77 17.458 1858.21 17.458C2029.17 17.458 2120.71 33.76 2120.71 123.212H1986.53C1986.53 90.608 1937.63 90.608 1858.21 90.608C1781.3 90.608 1731.55 90.608 1731.55 111.09C1731.55 135.752 1782.97 133.662 1860.3 135.334C1860.3 135.334 1860.3 135.334 1860.72 135.334ZM2892.96 164.594C2925.98 179.642 2947.3 205.14 2947.3 233.982C2947.3 280.38 2890.87 318.418 2821.06 318.418L2447.79 318V25.4L2796.4 25.818C2866.21 25.818 2923.06 63.438 2923.06 109.836C2923.06 130.736 2911.77 149.964 2892.96 164.594ZM2758.36 98.968H2581.55V139.514H2758.36C2775.08 139.514 2788.88 130.318 2788.88 119.032C2788.88 107.746 2775.08 98.968 2758.36 98.968ZM2783.03 245.268C2799.75 245.268 2813.12 236.072 2813.12 224.786C2813.12 213.5 2799.75 204.304 2783.03 204.304H2581.55V245.268H2783.03ZM2976.26 172.118V25.818H3110.02V172.118C3110.02 236.908 3158.92 253.21 3232.49 253.21C3305.22 253.21 3354.13 236.908 3354.13 172.118V25.818H3487.89V172.118C3487.89 293.756 3378.37 326.36 3232.49 326.36C3085.77 326.36 2976.26 293.756 2976.26 172.118ZM3665.74 318.418H3531.98V25.818H3665.74V318.418ZM3850.25 245.268H4154.97V318.418H3716.49V25.818H3850.25V245.268ZM4441.33 318.418H4185.51V25.818H4441.33C4616.05 25.818 4709.26 64.274 4709.26 172.118C4709.26 287.486 4616.05 318.418 4441.33 318.418ZM4319.27 245.268H4441.33C4522.84 245.268 4575.5 233.564 4575.5 172.118C4575.5 110.254 4524.09 98.968 4441.33 98.968H4319.27V245.268Z" fill="#EAF9FB"/>
</g>
<defs>
<clipPath id="clip0_193_2">
<rect width="4725" height="338" fill="white"/>
</clipPath>
</defs>
</svg>
