<svg width="4681" height="331" viewBox="0 0 4681 331" fill="none" xmlns="http://www.w3.org/2000/svg">
<path d="M319.196 9.54697C416.195 9.54697 495.314 61.846 495.314 126.661C495.314 191.476 416.195 244.222 319.196 244.222H143.078V322.447H0.0377745V9.54697H319.196ZM293.27 165.997C325.454 165.997 351.827 148.117 351.827 126.661C351.827 105.205 325.454 87.772 293.27 87.772H143.078V165.997H293.27ZM1115.54 165.997C1115.54 296.074 1011.39 330.94 816.047 330.94C633.224 330.94 516.11 296.074 516.11 165.997C516.11 43.966 620.261 0.606981 816.047 0.606981C1011.39 0.606981 1115.54 43.966 1115.54 165.997ZM959.087 165.997C959.087 96.265 908.576 78.832 816.047 78.832C724.412 78.832 672.56 96.265 672.56 165.997C672.56 235.282 724.412 252.715 816.047 252.715C906.788 252.715 959.087 235.282 959.087 165.997ZM1533.67 322.447L1471.98 244.222H1298.99V322.447H1155.95V9.54697H1514.45C1611.44 9.54697 1690.12 61.846 1690.12 126.661C1690.12 165.997 1661.06 200.863 1616.36 222.319L1695.48 322.447H1533.67ZM1298.99 87.772V165.997H1488.07C1520.7 165.997 1546.63 148.117 1546.63 126.661C1546.63 105.205 1520.7 87.772 1488.07 87.772H1298.99ZM2232.33 9.54697V87.772H2043.25V322.447H1899.77V87.772H1711.13V9.54697H2232.33ZM2407.76 322.447H2264.72V9.54697H2733.62V87.772H2407.76V126.661H2707.7V204.886H2407.76V322.447ZM3355.78 165.997C3355.78 296.074 3251.62 330.94 3056.29 330.94C2873.46 330.94 2756.35 296.074 2756.35 165.997C2756.35 43.966 2860.5 0.606981 3056.29 0.606981C3251.62 0.606981 3355.78 43.966 3355.78 165.997ZM3199.33 165.997C3199.33 96.265 3148.81 78.832 3056.29 78.832C2964.65 78.832 2912.8 96.265 2912.8 165.997C2912.8 235.282 2964.65 252.715 3056.29 252.715C3147.03 252.715 3199.33 235.282 3199.33 165.997ZM3539.23 244.222H3865.09V322.447H3396.19V9.54697H3539.23V244.222ZM4040.8 322.447H3897.76V9.54697H4040.8V322.447ZM4680.19 165.997C4680.19 296.074 4576.04 330.94 4380.7 330.94C4197.87 330.94 4080.76 296.074 4080.76 165.997C4080.76 43.966 4184.91 0.606981 4380.7 0.606981C4576.04 0.606981 4680.19 43.966 4680.19 165.997ZM4523.74 165.997C4523.74 96.265 4473.23 78.832 4380.7 78.832C4289.06 78.832 4237.21 96.265 4237.21 165.997C4237.21 235.282 4289.06 252.715 4380.7 252.715C4471.44 252.715 4523.74 235.282 4523.74 165.997Z" fill="#EAF9FB"/>
</svg>
